<?xml version="1.0" encoding="utf-8"?>
<!-- Generator: Adobe Illustrator 24.0.1, SVG Export Plug-In . SVG Version: 6.00 Build 0)  -->
<svg version="1.1" id="Layer_1" xmlns="http://www.w3.org/2000/svg" xmlns:xlink="http://www.w3.org/1999/xlink" x="0px" y="0px"
	 viewBox="0 0 94.6 30.1" style="enable-background:new 0 0 94.6 30.1;" xml:space="preserve">
<style type="text/css">
	.st0{fill:#FFFFFF;}
</style>
<g id="combined">
	<path class="st0" d="M10.8,14.8c0,2.8-1.5,4.3-4.6,4.3H0.4V4.3h5.7c1.5,0,2.6,0.3,3.3,0.9s1.1,1.6,1.1,2.9s-0.5,2.3-1.6,3v0.1
		C10.2,11.8,10.8,12.9,10.8,14.8z M6.1,10.2C6.2,10,6.3,9.6,6.3,9.1c0-0.6-0.1-1-0.2-1.2C5.9,7.6,5.7,7.5,5.3,7.5H4.5v3h0.8
		C5.7,10.6,5.9,10.5,6.1,10.2z M6.3,16c0.2-0.2,0.2-0.7,0.2-1.3c0-0.7-0.1-1.1-0.3-1.4C6,13,5.7,12.9,5.3,12.9H4.5v3.5h0.8
		C5.8,16.4,6.1,16.3,6.3,16z M18.1,19H12V7h3.3v9.3h3C18.3,16.3,18.1,19,18.1,19z M27.6,19h-3.2L24,17.1h-2.3L21.4,19h-3.1l2.2-12
		h4.9C25.4,7,27.6,19,27.6,19z M23.7,14.8L23,10.6h-0.1l-0.7,4.3h1.5L23.7,14.8z M31.6,13.1c0,1.1,0.1,2,0.3,2.4
		c0.2,0.5,0.6,0.7,1.1,0.7s1.2-0.1,2.2-0.4l0.5,2.7c-1,0.4-2,0.6-3.1,0.6c-1.5,0-2.7-0.5-3.4-1.5c-0.7-1-1.1-2.6-1.1-4.6
		s0.4-3.6,1.1-4.7s1.9-1.6,3.6-1.6c1,0,1.9,0.2,2.8,0.6l-0.5,3c-1-0.3-1.7-0.5-2.1-0.5c-0.6,0-1,0.2-1.2,0.7
		C31.7,11.2,31.6,12,31.6,13.1z M45.1,19h-3.7L40,14.5h-0.2V19h-3.2V7h3.2v5H40l1.7-5h3.6L43,13.2L45.1,19z M57,19h-4v-5.6h-2.8V19
		h-4.1V4.3h4.1v5.8H53V4.3h4V19z M59.5,8.2c0.7-1,2-1.5,3.6-1.5c1.7,0,2.9,0.5,3.6,1.4c0.7,1,1.1,2.5,1.1,4.7s-0.4,3.7-1.1,4.8
		c-0.7,1-2,1.5-3.6,1.5c-1.7,0-2.9-0.5-3.6-1.5c-0.7-1-1.1-2.6-1.1-4.7S58.8,9.2,59.5,8.2z M64.3,10.5c-0.2-0.4-0.6-0.6-1.1-0.6
		c-0.6,0-0.9,0.2-1.1,0.6c-0.2,0.4-0.3,1.2-0.3,2.4v0.5c0,1.3,0.1,2.1,0.3,2.5s0.6,0.6,1.1,0.6s0.9-0.2,1.1-0.6s0.3-1.1,0.3-2.3V13
		C64.6,11.7,64.5,10.9,64.3,10.5z M77.4,10.8c0,0.7-0.1,1.3-0.3,1.8c-0.2,0.5-0.6,0.9-1,1.3l1.6,5.1h-3.6l-1.2-4.3h-0.4V19h-3.2V7
		h4.5c1.3,0,2.2,0.3,2.8,0.9C77.1,8.5,77.4,9.5,77.4,10.8z M73.7,12.3c0.1-0.2,0.2-0.5,0.2-1.1c0-0.5-0.1-0.9-0.2-1.1
		C73.5,10,73.3,9.9,73,9.9h-0.5v2.7H73C73.3,12.6,73.5,12.5,73.7,12.3z M79.2,7.8c0.7-0.7,1.6-1,2.8-1c1.2,0,2.4,0.1,3.6,0.3
		l-0.4,3.1c-1.3-0.3-2.2-0.4-2.6-0.4c-0.6,0-0.9,0.2-0.9,0.7c0,0.2,0.1,0.4,0.4,0.6c0.3,0.2,0.6,0.4,1.1,0.6
		c0.4,0.2,0.8,0.4,1.2,0.7c0.4,0.3,0.8,0.7,1.1,1.2c0.3,0.5,0.4,1.1,0.4,1.8c0,1.2-0.3,2.2-1,2.8c-0.7,0.7-1.6,1-2.8,1
		c-1.2,0-2.4-0.2-3.5-0.6l0.2-2.9c1.4,0.4,2.3,0.6,2.9,0.6c0.5,0,0.8-0.2,0.8-0.7c0-0.2-0.1-0.5-0.4-0.7s-0.6-0.4-1.1-0.6
		c-0.4-0.2-0.8-0.4-1.2-0.7c-0.4-0.3-0.8-0.7-1.1-1.2c-0.3-0.5-0.4-1.1-0.4-1.8C78.2,9.5,78.6,8.5,79.2,7.8z M93.5,19H87V7h6.7
		l-0.2,3h-3.2v1.8h2.8v2.6h-2.8v2h3.4C93.7,16.4,93.5,19,93.5,19z"/>
</g>
<g id="Layer_4">
	<path class="st0" d="M56.2,23.1h19.9v1H56.2V23.1z M18.5,23.1h20.6v1H18.5V23.1z"/>
</g>
<g id="Layer_3">
	<path class="st0" d="M41.8,22c0.3-0.4,0.8-0.6,1.5-0.6s1.2,0.2,1.5,0.6s0.4,1,0.4,1.9s-0.2,1.5-0.5,1.9s-0.8,0.6-1.5,0.6
		s-1.2-0.2-1.5-0.6s-0.4-1-0.4-1.9S41.5,22.4,41.8,22z M43.7,22.9c-0.1-0.2-0.2-0.3-0.5-0.3s-0.4,0.1-0.4,0.3
		c-0.1,0.2-0.1,0.5-0.1,1v0.2c0,0.5,0,0.8,0.1,1s0.2,0.2,0.5,0.2s0.4-0.1,0.4-0.2c0.1-0.2,0.1-0.5,0.1-0.9V24
		C43.8,23.4,43.7,23.1,43.7,22.9z M49.6,26.3h-1.3l-1-2.3h-0.1v2.3H46v-4.8h1.3l1,2.3h0.1v-2.3h1.2V26.3z M53.3,26.3h-2.6v-4.8h2.7
		l-0.1,1.2H52v0.7h1.1v1H52v0.8h1.4C53.4,25.2,53.3,26.3,53.3,26.3z"/>
</g>
</svg>
