<?xml version="1.0" encoding="utf-8"?>
<!-- Generator: Adobe Illustrator 23.0.6, SVG Export Plug-In . SVG Version: 6.00 Build 0)  -->
<svg version="1.1" id="Layer_1" fill="black" xmlns="http://www.w3.org/2000/svg" xmlns:xlink="http://www.w3.org/1999/xlink" x="0px" y="0px"
	 viewBox="0 0 691 417" style="enable-background:new 0 0 691 417;" xml:space="preserve">
<g>
	<polygon points="38.9,238.7 32.8,248.4 453.2,248.4 449.5,238.7 	"/>
	<polygon points="661.7,239 543.1,239 537.8,249 656.5,249 	"/>
	<path d="M75.2,300.3c-2.7-2.8-6-4.9-9.8-6.4c-3.8-1.5-7.9-2.2-12.3-2.2c-5.4,0-10.2,0.9-14.5,2.8c-4.3,1.9-8,4.5-10.9,7.8
		c-2.9,3.3-5.2,7.2-6.8,11.7c-1.6,4.5-2.4,9.3-2.4,14.5c0,6.4,0.8,12.1,2.6,17c1.8,4.9,4.2,9.1,7.4,12.4c3.2,3.3,6.8,5.9,11.2,7.6
		c4.4,1.7,9.1,2.6,14.2,2.6c2.7,0,5.4-0.2,8.1-0.7s5.4-1.2,7.9-2.1c2.5-0.9,5-2.1,7.2-3.5c2.3-1.5,4.2-3.1,5.8-5.1l-3.6-5
		c-0.6-0.8-1.4-1.2-2.5-1.2c-0.9,0-1.8,0.3-3,1.1s-2.6,1.6-4.3,2.5c-1.7,0.9-3.7,1.7-6.1,2.5c-2.4,0.7-5.2,1.1-8.5,1.1
		c-3.5,0-6.7-0.6-9.5-1.7c-2.8-1.2-5.2-2.9-7.3-5.2c-2.1-2.3-3.7-5.3-4.8-8.7c-1.1-3.4-1.8-7.5-1.9-12.2h49.4c1.2,0,2-0.3,2.5-1
		s0.7-2.1,0.7-4.1c0-5.3-0.7-10-2.3-14.1C80.1,306.6,78,303.1,75.2,300.3z M72.3,322H31.7c0.9-6.4,3.2-11.4,6.8-15.1
		s8.6-5.5,14.8-5.5c3,0,5.6,0.5,8,1.5c2.4,1,4.4,2.4,6,4.2c1.6,1.8,2.9,4,3.7,6.5c0.9,2.5,1.3,5.3,1.3,8.3V322z"/>
	<path d="M177.6,276.7c-4.6-4.6-10-8.2-16.4-10.7c-6.3-2.5-13.4-3.8-21.1-3.8h-39.2v104.7h39.2c7.7,0,14.7-1.3,21.1-3.8
		c6.4-2.5,11.9-6.1,16.4-10.6s8-10.1,10.5-16.5c2.5-6.4,3.7-13.5,3.7-21.4c0-7.8-1.2-15-3.7-21.3
		C185.7,286.8,182.2,281.3,177.6,276.7z M174.7,331.9c-1.8,5-4.3,9.3-7.5,12.8s-7.1,6.1-11.7,8c-4.6,1.9-9.7,2.8-15.4,2.8h-24.9
		v-81.9h24.9c5.7,0,10.8,0.9,15.4,2.8c4.6,1.8,8.4,4.5,11.7,8s5.7,7.8,7.5,12.9c1.7,5.1,2.6,10.9,2.6,17.3
		C177.3,321.1,176.4,326.9,174.7,331.9z"/>
	<path d="M241.1,291.6c-4.9,0-9.1,1.4-12.5,4.3c-3.4,2.9-6.3,6.8-8.6,11.9l-1-11.3c-0.2-1.3-0.6-2.3-1.1-2.8s-1.5-0.8-2.9-0.8h-7.5
		V367h13.1v-46.8c0.9-2.6,2-4.8,3.1-6.8c1.2-2,2.5-3.7,3.9-5c1.4-1.3,3-2.3,4.9-3c1.9-0.7,4-1,6.3-1c1.7,0,3.2,0.1,4.5,0.4
		c1.3,0.3,2.3,0.4,3,0.4c1.2,0,1.9-0.6,2.2-1.8l0.9-9.7c-1.1-0.7-2.4-1.3-3.8-1.6C244.2,291.8,242.7,291.6,241.1,291.6z"/>
	<path d="M310.4,300.3c-2.8-2.8-6-4.9-9.8-6.4s-7.9-2.2-12.3-2.2c-5.4,0-10.2,0.9-14.5,2.8c-4.3,1.9-8,4.5-10.9,7.8
		c-2.9,3.3-5.2,7.2-6.8,11.7c-1.6,4.5-2.4,9.3-2.4,14.5c0,6.4,0.8,12.1,2.6,17c1.8,4.9,4.3,9.1,7.4,12.4c3.2,3.3,6.8,5.9,11.2,7.6
		s9.1,2.6,14.2,2.6c2.7,0,5.4-0.2,8.1-0.7c2.7-0.5,5.3-1.2,7.9-2.1c2.6-0.9,5-2.1,7.2-3.5c2.3-1.5,4.2-3.1,5.8-5.1l-3.7-5
		c-0.6-0.8-1.4-1.2-2.5-1.2c-0.9,0-1.9,0.3-3,1.1c-1.2,0.8-2.6,1.6-4.3,2.5c-1.7,0.9-3.7,1.7-6.1,2.5c-2.4,0.7-5.2,1.1-8.5,1.1
		c-3.5,0-6.7-0.6-9.5-1.7c-2.8-1.2-5.3-2.9-7.3-5.2c-2.1-2.3-3.7-5.3-4.8-8.7c-1.1-3.4-1.8-7.5-1.9-12.2H316c1.2,0,2-0.3,2.5-1
		s0.7-2.1,0.7-4.1c0-5.3-0.7-10-2.3-14.1C315.3,306.6,313.2,303.1,310.4,300.3z M307.5,322h-40.6c0.9-6.4,3.2-11.4,6.8-15.1
		s8.6-5.5,14.8-5.5c3,0,5.6,0.5,8,1.5c2.4,1,4.4,2.4,6,4.2c1.6,1.8,2.8,4,3.7,6.5c0.9,2.5,1.3,5.3,1.3,8.3V322z"/>
	<path d="M376.5,331.5c-1.8-1.5-3.8-2.7-6.1-3.7s-4.7-1.9-7.1-2.7c-2.5-0.8-4.8-1.6-7.1-2.3c-2.2-0.8-4.3-1.6-6.1-2.5
		c-1.9-0.9-3.3-2-4.4-3.3c-1.1-1.3-1.6-2.9-1.6-4.8c0-1.5,0.3-2.9,1-4.2c0.7-1.3,1.7-2.4,2.9-3.4s2.7-1.7,4.5-2.3
		c1.7-0.5,3.7-0.8,5.9-0.8c2.6,0,4.7,0.3,6.6,0.8c1.9,0.5,3.5,1.1,4.8,1.8c1.3,0.7,2.5,1.3,3.4,1.8c0.9,0.5,1.8,0.8,2.5,0.8
		c1.2,0,2.1-0.5,2.7-1.6l3-4.9c-2.9-2.7-6.2-4.8-10.1-6.3c-3.8-1.5-8.2-2.3-13.1-2.3c-4.2,0-7.9,0.6-11.2,1.8s-6.1,2.7-8.3,4.7
		s-3.9,4.3-5.1,6.9c-1.2,2.7-1.8,5.4-1.8,8.2c0,3.2,0.5,5.9,1.6,8.1c1.1,2.2,2.6,4.1,4.4,5.6c1.8,1.5,3.9,2.8,6.2,3.8
		c2.3,1,4.7,2,7.1,2.7c2.4,0.7,4.8,1.5,7.1,2.2c2.3,0.7,4.3,1.6,6.2,2.5c1.9,0.9,3.3,2,4.4,3.4c1.1,1.4,1.6,3.1,1.6,5.1
		c0,1.7-0.3,3.2-0.9,4.7s-1.5,2.8-2.8,3.9c-1.3,1.2-2.9,2-4.8,2.7s-4.2,1-6.7,1c-3,0-5.5-0.3-7.5-1c-2-0.7-3.7-1.5-5.1-2.3
		c-1.3-0.9-2.5-1.6-3.5-2.3s-1.9-1-2.8-1c-0.8,0-1.5,0.1-2,0.5c-0.5,0.4-1,0.9-1.4,1.5l-3.1,5c2.9,2.7,6.5,4.8,10.7,6.5
		c4.1,1.7,8.8,2.5,14,2.5c4.5,0,8.5-0.6,12-1.8s6.4-2.9,8.8-5c2.4-2.1,4.2-4.6,5.4-7.5c1.2-2.9,1.8-6.1,1.8-9.5
		c0-2.9-0.5-5.5-1.6-7.6C379.8,334.8,378.3,333,376.5,331.5z"/>
	<path d="M439.8,331.5c-1.8-1.5-3.8-2.7-6.1-3.7c-2.3-1-4.7-1.9-7.1-2.7c-2.5-0.8-4.8-1.6-7.1-2.3c-2.2-0.8-4.3-1.6-6.1-2.5
		c-1.9-0.9-3.3-2-4.4-3.3c-1.1-1.3-1.6-2.9-1.6-4.8c0-1.5,0.3-2.9,1-4.2s1.7-2.4,2.9-3.4s2.7-1.7,4.5-2.3c1.7-0.5,3.7-0.8,5.9-0.8
		c2.6,0,4.7,0.3,6.6,0.8c1.9,0.5,3.5,1.1,4.8,1.8c1.3,0.7,2.5,1.3,3.4,1.8c0.9,0.5,1.8,0.8,2.5,0.8c1.2,0,2.1-0.5,2.7-1.6l3-4.9
		c-2.9-2.7-6.2-4.8-10.1-6.3c-3.8-1.5-8.2-2.3-13.1-2.3c-4.2,0-7.9,0.6-11.2,1.8s-6.1,2.7-8.3,4.7s-3.9,4.3-5.1,6.9
		c-1.2,2.7-1.8,5.4-1.8,8.2c0,3.2,0.5,5.9,1.6,8.1c1.1,2.2,2.6,4.1,4.4,5.6s3.9,2.8,6.2,3.8c2.3,1,4.7,2,7.1,2.7
		c2.4,0.7,4.8,1.5,7.1,2.2s4.3,1.6,6.2,2.5c1.9,0.9,3.3,2,4.4,3.4c1.1,1.4,1.6,3.1,1.6,5.1c0,1.7-0.3,3.2-0.9,4.7
		c-0.6,1.5-1.5,2.8-2.8,3.9c-1.3,1.2-2.9,2-4.8,2.7s-4.2,1-6.7,1c-3,0-5.5-0.3-7.5-1c-2-0.7-3.7-1.5-5.1-2.3
		c-1.3-0.9-2.5-1.6-3.5-2.3s-1.9-1-2.8-1c-0.8,0-1.5,0.1-2,0.5c-0.5,0.4-1,0.9-1.4,1.5l-3.1,5c2.9,2.7,6.5,4.8,10.7,6.5
		c4.1,1.7,8.8,2.5,14,2.5c4.5,0,8.5-0.6,12-1.8s6.4-2.9,8.8-5c2.4-2.1,4.2-4.6,5.4-7.5c1.2-2.9,1.8-6.1,1.8-9.5
		c0-2.9-0.5-5.5-1.6-7.6C443.1,334.8,441.6,333,439.8,331.5z"/>
	<path d="M508,299.3c-2.2-2.4-4.9-4.4-8.1-5.7s-6.9-2-11-2c-5.7,0-11,0.9-15.7,2.9s-9.1,4.9-13.2,8.9l2.4,4.1c0.4,0.7,1,1.2,1.6,1.7
		c0.7,0.5,1.4,0.7,2.3,0.7c1.1,0,2.3-0.4,3.4-1.2c1.1-0.8,2.5-1.7,4.1-2.7c1.6-1,3.4-1.9,5.6-2.7s4.9-1.2,8.1-1.2
		c4.8,0,8.4,1.4,10.9,4.4s3.7,7.3,3.7,13.1v5.8c-8.5,0.2-15.6,1-21.4,2.3c-5.8,1.4-10.5,3.1-14.1,5.2c-3.6,2.1-6.2,4.5-7.8,7.2
		c-1.6,2.8-2.4,5.6-2.4,8.5c0,3.3,0.5,6.2,1.6,8.7c1.1,2.5,2.6,4.5,4.5,6.1c1.9,1.6,4.1,2.8,6.6,3.6c2.5,0.8,5.2,1.2,8.1,1.2
		c2.8,0,5.4-0.3,7.7-0.8s4.4-1.3,6.5-2.2c2.1-0.9,4.1-2.1,5.9-3.5c1.8-1.4,3.7-3,5.7-4.8l1.5,7c0.4,1.3,0.9,2.1,1.6,2.5
		c0.7,0.4,1.6,0.6,2.9,0.6h5.7v-47.4c0-4.1-0.6-7.9-1.7-11.4C511.8,304.7,510.2,301.7,508,299.3z M497.7,353.3
		c-1.5,1.2-3.1,2.2-4.8,3.1c-1.7,0.9-3.5,1.5-5.4,2c-1.9,0.5-4,0.7-6.3,0.7c-1.7,0-3.3-0.2-4.8-0.6c-1.5-0.4-2.8-1.1-3.9-2
		c-1.1-0.9-2-2.1-2.6-3.5c-0.7-1.4-1-3-1-5c0-2.1,0.6-3.9,1.8-5.6c1.2-1.6,3.2-3,5.8-4.3s6.1-2.2,10.3-3c4.2-0.7,9.3-1.2,15.3-1.4
		l0.1,15.4C500.7,350.7,499.2,352.1,497.7,353.3z"/>
	<path d="M569.7,292.7c-2.8-0.7-5.8-1.1-9-1.1c-4.1,0-7.9,0.6-11.3,1.7s-6.4,2.7-8.9,4.8c-2.5,2-4.4,4.5-5.8,7.5
		c-1.4,2.9-2.1,6.2-2.1,9.8c0,4.5,1,8.4,3.1,11.8s4.9,6.2,8.6,8.2c-1.6,0.8-2.9,1.7-4.1,2.7c-1.2,1.1-2.2,2.2-3,3.3
		c-0.8,1.1-1.4,2.3-1.8,3.4s-0.6,2.2-0.6,3.3c0,2.8,0.6,5,1.9,6.6c1.3,1.6,3,2.9,5.2,3.9c-4,1.5-7.1,3.6-9.4,6.1
		c-2.3,2.5-3.4,5.6-3.4,9.3c0,2.6,0.7,5,2,7.4c1.3,2.4,3.3,4.5,6,6.3s6.1,3.2,10.1,4.3c4,1.1,8.8,1.6,14.2,1.6s10.3-0.7,14.6-2.1
		c4.3-1.4,7.9-3.3,10.9-5.6c2.9-2.3,5.2-4.9,6.8-7.9c1.6-3,2.4-6,2.4-9.2c0-3.4-0.7-6.2-2.2-8.3c-1.5-2.1-3.4-3.8-5.7-5
		s-5-2.1-8-2.6s-6-0.9-9.2-1.1c-3.1-0.2-6.2-0.4-9.2-0.5c-3-0.1-5.7-0.3-8-0.7c-2.4-0.4-4.2-1-5.7-1.9c-1.5-0.9-2.2-2.2-2.2-4
		c0-1.1,0.4-2.2,1.2-3.3c0.8-1.1,2-2.1,3.6-3.1c3.1,0.8,6.3,1.2,9.8,1.2c4,0,7.7-0.6,11.1-1.7c3.4-1.1,6.4-2.7,8.8-4.8
		c2.4-2.1,4.3-4.6,5.7-7.6c1.4-2.9,2.1-6.2,2.1-9.8c0-3.9-0.8-7.5-2.5-10.7l8.4-1.1c2.1-0.5,3.1-1.5,3.1-3.1v-4.8l-19.9-0.1
		C575,294.5,572.5,293.4,569.7,292.7z M549.7,361c2.4,0.3,5,0.6,7.6,0.7c2.6,0.1,5.2,0.3,7.8,0.4c2.6,0.1,5,0.3,7.3,0.6
		s4.3,0.8,6,1.4c1.7,0.6,3.1,1.5,4.1,2.6c1,1.1,1.5,2.6,1.5,4.4c0,1.9-0.5,3.7-1.5,5.3c-1,1.6-2.4,3-4.4,4.2s-4.4,2-7.1,2.7
		s-5.9,1-9.4,1c-3.6,0-6.8-0.3-9.4-0.9c-2.6-0.6-4.8-1.5-6.6-2.5c-1.7-1-3.1-2.3-3.9-3.7c-0.9-1.4-1.3-2.9-1.3-4.6
		c0-2.6,0.9-4.9,2.6-6.8C544.7,363.9,547,362.3,549.7,361z M575.6,321.9c-0.7,1.8-1.7,3.4-3.1,4.7c-1.3,1.3-3,2.4-5,3.1
		s-4.4,1.1-7,1.1s-5-0.3-6.9-1.1c-2-0.8-3.6-1.8-5-3.1c-1.4-1.3-2.4-2.9-3.1-4.7c-0.8-1.8-1.1-3.8-1.1-6c0-4.5,1.3-8.1,4.1-10.8
		c2.7-2.7,6.7-4,12-4s9.2,1.3,12,4c2.7,2.7,4.1,6.3,4.1,10.8C576.6,318.1,576.3,320.1,575.6,321.9z"/>
	<path d="M668.7,310.7c-1.6-4.1-3.7-7.6-6.5-10.4s-6-4.9-9.8-6.4s-7.9-2.2-12.3-2.2c-5.4,0-10.2,0.9-14.5,2.8
		c-4.3,1.9-7.9,4.5-10.9,7.8c-2.9,3.3-5.2,7.2-6.8,11.7c-1.6,4.5-2.4,9.3-2.4,14.5c0,6.4,0.8,12.1,2.6,17c1.7,4.9,4.1,9.1,7.3,12.4
		c3.2,3.3,6.9,5.9,11.2,7.6c4.4,1.7,9.1,2.6,14.2,2.6c2.7,0,5.4-0.2,8.1-0.7s5.4-1.2,7.9-2.1c2.5-0.9,5-2.1,7.2-3.5
		c2.3-1.5,4.2-3.1,5.8-5.1l-3.6-5c-0.6-0.8-1.4-1.2-2.5-1.2c-0.9,0-1.8,0.3-3,1.1s-2.6,1.6-4.3,2.5c-1.7,0.9-3.7,1.7-6.1,2.5
		c-2.4,0.7-5.2,1.1-8.5,1.1c-3.5,0-6.7-0.6-9.5-1.7c-2.8-1.2-5.2-2.9-7.3-5.2c-2.1-2.3-3.7-5.3-4.8-8.7s-1.7-7.5-1.9-12.2h49.5
		c1.2,0,2-0.3,2.5-1s0.7-2.1,0.7-4.1C671,319.5,670.3,314.8,668.7,310.7z M659.2,322h-40.6c0.9-6.4,3.2-11.4,6.8-15.1
		s8.6-5.5,14.8-5.5c3,0,5.6,0.5,8,1.5s4.4,2.4,6,4.2c1.6,1.8,2.8,4,3.7,6.5c0.9,2.5,1.3,5.3,1.3,8.3V322z"/>
	<path d="M513,186.6c-14-29.3-28.7-58.2-43.1-87.3c-0.5-0.9-0.9-2.5-0.5-3.2c2.6-3.8,4.9-7.9,8.3-10.9c5.6-4.9,12-8.9,17.9-13.6
		c1.8-1.5,3-3.9,4.4-5.9c-0.3-0.5-0.6-1-1-1.6c-27.3,0.5-54.3,5.2-82.3,8.2c0.1,0,0.1,0.1,0.2,0.1l-0.2,0l-13.6-6.7l-3.5-1.3
		c2.3,0.8,3.5,1.3,3.5,1.3s-84.4-44.8-174.8,13.8C151.9,129,139,218.9,139,218.9h10.4c0,0,0,0,0-0.1h2.8l0.5-0.2
		c62.6,0,126,0,179.9,0c0.1-6.2,0.1-12.2,0.4-18.1c0.9-21.6,12.8-36.3,30.6-46.6c10.8-6.2,22.3-1.9,27.6,9.1
		c0.8,1.7,1.7,3.2,2.4,4.9c5.6,14.3,16.5,23,30.4,28.5c7.6,3,15.5,5.4,22.6,9.1c13.5,7.1,24,17,27.1,33c0.6,2.9,2.6,7,4.9,7.9
		c8.3,3,17.1,5.1,26,3.1c6.4-1.4,13.3-2.8,14.6-11.2c0.2-1.2,1.1-2.5,2-3.4c4.9-4.6,5.2-10.5,3.3-16.4
		C521,207.8,517.8,196.8,513,186.6z M444.3,98.2L444.3,98.2c0,0,0.1,0,0.1,0.1C444.4,98.3,444.3,98.3,444.3,98.2z"/>
</g>
</svg>
